# xmcd
#
# Track frame offsets: 
#        150
#        22470
#        43356
#        60377
#        80265
#        98505
#        121849
#        146294
#        170825
#        188528
#        210900
#        230890
#        250238
#
# Disc length: 3644 seconds
#
# Revision: 0
# Processed by: cddbd v1.5.2PL0 Copyright (c) Steve Scherf et al.
# Submitted via: ExactAudioCopyFreeDBPlugin 1.0
#
DISCID=ae0e3a0d
DTITLE=伽菲珈而 - 心曲-精选
DYEAR=1900
DGENRE=Pop
TTITLE0=一个真实的故事
TTITLE1=花儿为什么这样红
TTITLE2=绣荷包
TTITLE3=化蝶
TTITLE4=信歌
TTITLE5=赞歌
TTITLE6=弯弯的月亮
TTITLE7=葬心
TTITLE8=月牙泉
TTITLE9=阿瓦日古丽
TTITLE10=阿里山的姑娘
TTITLE11=云儿
TTITLE12=一把小雨伞 
EXTD=
EXTT0=
EXTT1=
EXTT2=
EXTT3=
EXTT4=
EXTT5=
EXTT6=
EXTT7=
EXTT8=
EXTT9=
EXTT10=
EXTT11=
EXTT12=
PLAYORDER=
